<?xml version="1.0" standalone="no"?>
<!DOCTYPE svg PUBLIC "-//W3C//DTD SVG 20010904//EN"
 "http://www.w3.org/TR/2001/REC-SVG-20010904/DTD/svg10.dtd">
<svg version="1.0" xmlns="http://www.w3.org/2000/svg"
 width="256.000000pt" height="256.000000pt" viewBox="0 0 256.000000 256.000000"
 preserveAspectRatio="xMidYMid meet">
<metadata>
Created by potrace 1.11, written by Peter Selinger 2001-2013
</metadata>
<g transform="translate(0.000000,256.000000) scale(0.100000,-0.100000)"
fill="#000000" stroke="none">
<path d="M1212 2448 c-82 -9 -122 -22 -202 -65 -82 -44 -149 -100 -194 -162
-34 -46 -38 -49 -96 -55 -33 -4 -61 -7 -62 -6 -11 3 -130 -46 -176 -72 -225
-128 -340 -401 -277 -653 10 -38 26 -86 36 -106 18 -36 18 -38 0 -75 -73 -152
-80 -332 -18 -479 58 -140 164 -251 297 -314 59 -28 108 -42 202 -56 30 -5 44
-15 68 -49 16 -24 57 -69 90 -99 231 -209 586 -198 810 24 37 38 71 78 75 89
5 14 15 20 38 21 198 5 411 140 501 319 50 99 61 148 61 280 -1 115 -3 131
-31 200 l-30 76 26 64 c93 228 48 474 -118 648 -89 93 -230 162 -362 176 -35
4 -49 11 -65 33 -11 15 -51 60 -90 98 -130 128 -297 185 -483 163z m72 -24
c38 -15 78 -162 75 -278 -2 -105 -48 -261 -74 -253 -5 2 -21 35 -35 73 -33 93
-34 266 -3 359 34 98 35 101 18 72 -48 -82 -68 -266 -41 -379 l13 -58 -53 50
c-102 92 -226 147 -367 159 -15 2 13 39 75 101 105 103 312 185 392 154z m190
-25 c103 -35 236 -133 272 -201 20 -38 19 -41 -18 -44 -112 -8 -246 -68 -336
-149 l-59 -54 15 42 c35 99 23 309 -23 398 -8 15 -15 31 -15 35 0 11 100 -6
164 -27z m-714 -259 c0 -4 -9 -28 -20 -52 -41 -94 -55 -234 -34 -337 8 -36 13
-66 11 -67 -1 -1 -27 20 -57 47 -30 27 -86 64 -125 83 -73 35 -162 63 -171 54
-3 -3 19 -11 48 -18 125 -30 288 -143 334 -232 14 -27 13 -28 -9 -28 -142 0
-328 106 -419 238 l-31 45 31 -6 c20 -4 32 -2 32 4 0 6 -3 8 -7 6 -5 -3 -16
-1 -27 2 -16 6 -13 14 32 67 52 63 130 121 204 152 81 35 208 60 208 42z m164
-11 c115 -30 234 -110 305 -203 l42 -56 -36 0 c-51 0 -179 45 -246 86 -61 37
-179 155 -179 179 0 16 36 14 114 -6z m846 -3 c0 -25 -98 -123 -163 -164 -65
-41 -164 -82 -197 -82 -11 0 -20 -3 -20 -8 0 -4 -18 -6 -40 -4 -22 2 -40 8
-40 13 0 17 147 155 191 177 68 37 141 62 205 71 32 5 60 9 62 10 1 0 2 -5 2
-13z m257 -46 c78 -36 148 -90 194 -148 19 -24 40 -50 47 -58 12 -13 9 -18
-10 -15 -5 0 -8 -3 -8 -9 0 -5 7 -10 15 -10 24 0 3 -32 -69 -103 -65 -64 -174
-127 -251 -145 -69 -17 -124 -22 -129 -13 -3 5 5 25 19 45 28 41 31 51 13 40
-7 -5 -8 -3 -3 5 19 32 34 133 31 216 -2 66 -10 111 -30 166 -14 41 -26 78
-26 81 0 13 148 -24 207 -52z m-1209 -7 c33 -91 34 -101 34 -199 0 -91 -21
-186 -57 -254 l-13 -25 -20 46 c-45 104 -56 249 -27 361 17 64 45 128 56 128
3 0 16 -26 27 -57z m997 5 c55 -137 52 -312 -7 -446 -23 -52 -30 -48 -59 34
-27 76 -36 222 -19 295 17 72 49 159 60 159 4 0 15 -19 25 -42z m-921 -63 c59
-57 186 -127 260 -142 l40 -9 -63 -17 c-110 -31 -207 -89 -278 -166 l-32 -35
21 64 c25 81 28 241 5 313 -8 26 -14 47 -12 47 2 0 29 -25 59 -55z m834 -17
c-23 -86 -21 -246 4 -314 l15 -42 -56 55 c-66 65 -162 121 -245 143 -62 17
-63 23 -7 35 86 18 215 94 276 162 17 18 31 33 31 33 1 0 -7 -33 -18 -72z
m-478 -174 c-12 -18 -23 -44 -25 -56 -3 -13 -11 -55 -18 -93 -17 -89 -13 -208
10 -273 3 -9 -14 2 -38 24 -58 55 -134 101 -215 129 -36 12 -67 25 -70 28 -3
2 14 7 36 11 72 11 214 90 269 150 14 14 19 26 13 26 -6 0 -15 -6 -19 -13 -14
-25 -107 -90 -168 -118 -94 -44 -225 -66 -225 -38 0 6 34 44 75 84 104 102
237 164 369 171 l26 2 -20 -34z m165 15 c64 -14 179 -70 229 -112 21 -17 59
-56 83 -86 50 -61 45 -76 -20 -61 -20 4 -35 4 -32 0 3 -5 -21 -16 -52 -25 -67
-19 -176 -75 -213 -107 -14 -13 -35 -31 -47 -41 l-21 -18 14 58 c22 93 18 214
-11 303 -6 19 5 12 56 -34 63 -56 175 -120 234 -131 17 -4 -3 8 -43 24 -106
45 -171 92 -245 180 -60 72 -54 76 68 50z m-1110 -16 c10 -16 46 -55 81 -89
68 -66 184 -130 257 -142 l42 -7 -65 -18 c-125 -35 -267 -131 -326 -222 -9
-14 -20 -23 -24 -20 -5 3 -19 36 -31 73 -18 52 -23 89 -24 167 0 55 3 116 7
135 9 44 51 150 59 150 4 0 15 -12 24 -27z m1017 -71 c18 -54 23 -88 23 -177
0 -96 -4 -120 -29 -188 -34 -94 -45 -91 -75 22 -31 114 -27 252 8 344 6 15 15
39 21 53 14 35 25 24 52 -54z m1017 -52 c31 -111 18 -249 -34 -374 l-16 -38
-31 44 c-42 58 -92 104 -162 149 -61 41 -152 78 -189 80 -12 0 10 11 48 23 39
12 86 31 105 40 61 31 154 107 194 158 l39 50 14 -34 c8 -18 22 -62 32 -98z
m-1579 -141 c0 -10 -53 -73 -90 -107 -42 -40 -141 -102 -182 -114 -21 -6 -38
-15 -38 -20 0 -4 17 -1 38 8 20 9 44 18 52 22 28 10 105 66 151 109 l46 43
-19 -55 c-33 -100 -34 -186 -2 -334 4 -20 -4 -16 -53 30 -32 30 -86 68 -118
86 -65 34 -160 65 -169 56 -3 -4 -6 -1 -6 5 0 7 13 12 29 12 17 0 33 5 37 12
5 8 2 9 -10 5 -34 -13 -126 -20 -126 -10 0 16 79 102 132 143 56 45 177 97
250 108 68 10 78 10 78 1z m195 -24 c110 -37 217 -115 277 -202 33 -48 32 -49
-63 -29 -87 19 -151 48 -224 103 -57 43 -135 130 -135 151 0 12 78 -1 145 -23z
m-130 -80 c36 -114 26 -278 -23 -387 -25 -57 -47 -65 -137 -48 -128 24 -248
98 -332 204 -39 49 -42 68 -10 61 12 -3 33 -7 47 -9 91 -14 170 -51 254 -116
54 -41 67 -55 105 -108 30 -42 37 -35 16 14 -26 61 -44 173 -40 243 5 82 12
112 42 188 25 63 25 63 42 40 10 -12 26 -49 36 -82z m920 69 c-31 -48 -118
-124 -179 -159 -67 -36 -144 -61 -219 -69 l-48 -6 22 31 c76 107 208 190 347
219 48 10 89 16 91 14 2 -2 -4 -15 -14 -30z m173 11 c112 -27 225 -98 301
-190 50 -61 52 -77 10 -68 -21 4 -34 1 -40 -8 -7 -11 -9 -11 -9 4 0 10 -8 17
-20 17 -10 0 -32 5 -47 11 -130 53 -189 97 -293 219 l-21 25 7 -25 c4 -14 9
-27 13 -30 3 -3 8 -16 9 -29 2 -13 8 -33 13 -45 7 -15 8 -11 3 18 l-5 39 62
-57 c66 -59 175 -121 235 -132 43 -8 44 -20 2 -29 -96 -21 -212 -88 -289 -170
l-28 -29 14 39 c8 22 14 47 14 55 0 8 -12 -18 -27 -59 -15 -41 -32 -76 -38
-78 -14 -5 -47 66 -64 136 -27 114 4 314 57 375 27 30 51 32 141 11z m-988
-146 c53 -40 124 -77 177 -92 l47 -14 -54 -18 c-86 -28 -145 -61 -216 -121
-36 -31 -61 -47 -55 -37 34 65 37 273 5 358 -5 13 4 8 27 -15 19 -19 50 -47
69 -61z m786 21 c-18 -62 -20 -213 -2 -279 l14 -55 -26 30 c-59 65 -142 118
-242 153 l-52 19 53 17 c79 26 159 70 215 119 27 24 50 43 51 42 1 -1 -4 -22
-11 -46z m-1357 -251 c73 -72 195 -141 273 -154 l40 -7 -79 -27 c-43 -14 -105
-42 -137 -61 -57 -35 -176 -150 -176 -172 0 -6 14 7 31 28 79 99 200 179 310
203 66 15 129 20 129 12 0 -16 -59 -88 -102 -125 -81 -70 -179 -114 -295 -134
-61 -11 -77 -4 -103 48 -61 120 -61 307 1 451 l21 49 31 -43 c17 -23 42 -54
56 -68z m891 101 c0 -11 -54 -75 -94 -110 -45 -40 -141 -96 -193 -113 -60 -19
-163 -32 -163 -20 0 19 108 123 168 161 67 43 132 69 210 82 67 11 72 11 72 0z
m169 -11 c91 -21 173 -69 254 -150 42 -43 77 -85 77 -92 0 -29 -165 16 -259
71 -55 32 -181 155 -181 176 0 16 17 16 109 -5z m834 -12 c-75 -95 -137 -146
-224 -186 -86 -38 -229 -70 -229 -51 0 13 60 83 103 122 81 72 233 135 330
137 l38 1 -18 -23z m-942 -55 c44 -116 35 -313 -21 -421 l-17 -35 -16 30 c-26
51 -48 165 -46 239 3 96 49 262 70 249 4 -2 18 -30 30 -62z m1010 -24 c36
-110 34 -255 -5 -361 -15 -42 -32 -79 -36 -82 -4 -3 -16 7 -26 22 -65 100
-201 197 -316 227 l-53 13 60 17 c129 38 230 107 312 213 14 18 29 31 33 28 4
-2 18 -37 31 -77z m-1111 -8 c-6 -11 -8 -20 -6 -20 3 0 1 -12 -5 -27 -14 -38
-12 -188 5 -256 l13 -57 -46 43 c-25 23 -66 57 -91 74 -46 31 -190 88 -190 75
0 -4 26 -15 58 -24 92 -27 210 -112 275 -199 33 -44 35 -61 5 -54 -13 3 -34 7
-48 9 -56 9 -118 30 -171 57 -66 35 -173 128 -195 171 -26 51 -27 23 -1 -59
37 -116 36 -240 -4 -357 -16 -48 -29 -90 -29 -93 0 -3 13 12 28 33 38 52 113
117 176 153 57 33 183 71 234 71 30 0 32 -2 22 -20 -18 -33 -101 -114 -153
-150 -80 -53 -173 -84 -290 -95 -57 -5 -111 218 -87 360 26 149 66 207 137
198 17 -2 34 1 38 7 3 5 16 10 28 10 54 0 202 80 281 152 25 23 29 23 16 -2z
m317 -116 c40 -19 89 -38 109 -41 37 -6 37 -6 -39 -33 -90 -32 -174 -81 -228
-133 -42 -41 -44 -42 -29 -3 30 79 32 211 5 325 -5 20 3 15 52 -28 32 -29 91
-68 130 -87z m227 -63 c4 -5 -14 -34 -40 -65 -67 -83 -195 -163 -296 -185 -59
-13 -124 -17 -120 -8 1 4 2 11 2 17 0 5 30 40 68 77 89 90 212 151 337 166 17
2 33 5 37 6 4 0 9 -3 12 -8z m211 -26 c101 -35 233 -138 289 -227 l19 -30 -59
7 c-155 19 -342 134 -400 246 l-16 32 58 -6 c33 -3 82 -13 109 -22z m-153 -61
c18 -49 22 -81 23 -184 0 -114 -2 -131 -28 -197 -16 -40 -33 -73 -37 -73 -10
0 -48 98 -57 148 -19 103 1 258 44 350 19 40 26 34 55 -44z m-813 -118 c60
-31 137 -58 168 -59 25 -1 1 -11 -61 -27 -84 -22 -178 -76 -245 -141 -30 -28
-51 -43 -46 -33 4 11 14 44 22 74 18 68 13 236 -9 297 l-15 41 60 -58 c33 -33
89 -74 126 -94z m731 125 c-36 -69 -46 -276 -16 -359 8 -23 13 -48 10 -56 -3
-7 2 -19 11 -26 25 -21 19 -39 -12 -34 -141 23 -245 70 -329 151 -34 32 -71
73 -83 91 l-22 32 33 0 c96 0 238 -65 333 -152 36 -33 65 -56 65 -52 0 4 -25
31 -57 60 -64 60 -165 117 -244 138 -52 13 -53 14 -24 21 116 27 222 83 294
157 51 53 56 57 41 29z m-1033 -52 c-28 -108 -14 -286 29 -371 8 -15 14 -30
14 -34 0 -7 -74 -1 -119 10 -45 10 -152 66 -199 103 -48 37 -132 133 -132 149
0 5 12 11 28 12 116 9 268 73 342 145 25 24 46 43 48 42 2 -2 -3 -27 -11 -56z
m1251 -51 c87 -60 197 -100 290 -106 l23 -2 -22 -31 c-92 -129 -231 -209 -406
-233 -18 -2 -33 -1 -33 3 0 4 11 35 25 69 25 62 39 134 39 207 0 51 -11 146
-20 171 -5 13 4 8 27 -15 18 -18 53 -47 77 -63z m-649 -168 c56 -130 52 -314
-10 -446 l-22 -46 -15 28 c-21 39 -52 160 -52 201 0 18 -4 33 -10 33 -5 0 -8
-6 -5 -12 2 -7 6 -34 9 -59 4 -39 27 -117 51 -171 6 -15 2 -18 -22 -18 -48 0
-175 40 -233 73 -56 31 -167 134 -188 174 -11 21 -10 22 35 28 127 17 246 72
340 158 31 29 51 43 45 32 -16 -29 -32 -108 -32 -156 0 -58 6 -46 13 26 4 33
10 74 15 90 17 55 44 115 52 115 4 0 17 -23 29 -50z m191 -153 c36 -19 98 -45
138 -56 82 -22 75 -21 103 -21 l20 0 -21 -30 c-85 -120 -239 -209 -389 -226
l-60 -6 25 60 c46 113 57 256 30 360 l-15 54 52 -49 c29 -27 81 -66 117 -86z"/>
<path d="M2102 1824 c-75 -25 -158 -72 -212 -120 -16 -15 -28 -29 -25 -32 2
-3 22 11 43 30 63 57 162 107 254 127 57 14 72 19 48 20 -19 0 -68 -11 -108
-25z"/>
<path d="M1846 1373 c9 -43 10 -103 4 -151 -3 -29 -3 -52 2 -52 8 0 12 46 11
125 -1 78 -3 95 -12 95 -5 0 -7 -8 -5 -17z"/>
</g>
</svg>
